<svg width="196" height="33" viewBox="0 0 196 33" fill="none" xmlns="http://www.w3.org/2000/svg">
<g style="mix-blend-mode:exclusion">
<path d="M0.695312 4.04688C2.25781 4.17708 3.625 4.25521 4.79688 4.28125C5.99479 4.30729 7.01042 4.32031 7.84375 4.32031C8.80729 4.32031 9.64062 4.29427 10.3438 4.24219C11.0729 4.16406 12.0234 4.0599 13.1953 3.92969C14.1849 3.79948 15.4609 3.63021 17.0234 3.42188C18.5859 3.1875 20.487 2.88802 22.7266 2.52344C22.4401 2.96615 22.1927 3.4349 21.9844 3.92969C21.8021 4.39844 21.6458 4.82812 21.5156 5.21875C21.3854 5.6875 21.2682 6.14323 21.1641 6.58594C21.0859 7.08073 20.9948 7.69271 20.8906 8.42188C20.7865 9.04688 20.6562 9.84115 20.5 10.8047C20.3698 11.7422 20.2005 12.862 19.9922 14.1641C19.2109 12.1328 18.4167 10.5703 17.6094 9.47656C16.8281 8.38281 16.099 7.57552 15.4219 7.05469C14.6406 6.45573 13.8984 6.11719 13.1953 6.03906C12.1797 6.03906 11.3464 6.23438 10.6953 6.625C10.0443 7.01562 9.51042 7.52344 9.09375 8.14844C8.70312 8.7474 8.40365 9.41146 8.19531 10.1406C7.98698 10.8438 7.84375 11.5339 7.76562 12.2109C7.6875 12.862 7.63542 13.4479 7.60938 13.9688C7.58333 14.4635 7.55729 14.8021 7.53125 14.9844C8.44271 14.9323 9.21094 14.8672 9.83594 14.7891C10.4609 14.7109 10.9557 14.6328 11.3203 14.5547C11.763 14.4505 12.1146 14.3464 12.375 14.2422C12.7656 14.0339 13.1562 13.7865 13.5469 13.5C13.8854 13.2396 14.237 12.9271 14.6016 12.5625C14.9922 12.1979 15.3307 11.7552 15.6172 11.2344C15.4609 12.1719 15.3177 12.9531 15.1875 13.5781C15.0833 14.2031 14.9922 14.6979 14.9141 15.0625C14.8099 15.5052 14.7448 15.8438 14.7188 16.0781C14.6667 16.3125 14.6016 16.638 14.5234 17.0547C14.4453 17.4193 14.3542 17.888 14.25 18.4609C14.1458 19.0339 14.0286 19.75 13.8984 20.6094C13.5859 20.0625 13.2604 19.6198 12.9219 19.2812C12.5833 18.9167 12.2708 18.6302 11.9844 18.4219C11.6458 18.1875 11.3203 18.0052 11.0078 17.875C10.6693 17.7708 10.3047 17.6667 9.91406 17.5625C9.57552 17.4844 9.17188 17.4062 8.70312 17.3281C8.26042 17.224 7.77865 17.1328 7.25781 17.0547C7.3099 18.4609 7.38802 19.6719 7.49219 20.6875C7.59635 21.6771 7.6875 22.5104 7.76562 23.1875C7.86979 23.9688 7.97396 24.6198 8.07812 25.1406C8.20833 25.6615 8.41667 26.2214 8.70312 26.8203C8.9375 27.3411 9.26302 27.9401 9.67969 28.6172C10.1224 29.2682 10.6823 29.9714 11.3594 30.7266C10.8385 30.5964 10.2917 30.5052 9.71875 30.4531C9.14583 30.401 8.63802 30.362 8.19531 30.3359C7.64844 30.3099 7.1276 30.3099 6.63281 30.3359C6.11198 30.362 5.53906 30.4141 4.91406 30.4922C4.39323 30.5443 3.79427 30.6224 3.11719 30.7266C2.4401 30.8307 1.72396 30.9479 0.96875 31.0781C1.41146 30.6354 1.77604 30.1927 2.0625 29.75C2.34896 29.3073 2.55729 28.9167 2.6875 28.5781C2.84375 28.1875 2.94792 27.8099 3 27.4453C3.02604 27.1328 3.03906 26.4557 3.03906 25.4141C3.03906 24.3464 3.02604 23.1094 3 21.7031C2.97396 20.2708 2.9349 18.7604 2.88281 17.1719C2.83073 15.5833 2.77865 14.099 2.72656 12.7188C2.67448 11.3125 2.60938 10.1146 2.53125 9.125C2.47917 8.13542 2.41406 7.53646 2.33594 7.32812C2.23177 7.06771 2.11458 6.76823 1.98438 6.42969C1.77604 5.88281 1.34635 5.08854 0.695312 4.04688ZM21.125 13.5391L28.3125 13.6172C27.8958 15.2057 27.5833 16.5599 27.375 17.6797C27.1927 18.7995 27.0755 19.737 27.0234 20.4922C26.9193 21.3516 26.8932 22.0807 26.9453 22.6797C27.0234 23.2266 27.1536 23.8125 27.3359 24.4375C27.4922 24.9583 27.7266 25.5573 28.0391 26.2344C28.3516 26.9115 28.7682 27.5885 29.2891 28.2656C28.9766 28.1615 28.638 28.0833 28.2734 28.0312C27.9089 27.9792 27.5703 27.9401 27.2578 27.9141C26.8932 27.888 26.5286 27.888 26.1641 27.9141C25.7995 27.9401 25.3958 27.9792 24.9531 28.0312C24.5885 28.0833 24.1458 28.1484 23.625 28.2266C23.1042 28.3047 22.5573 28.4089 21.9844 28.5391C22.375 27.3672 22.6745 26.3516 22.8828 25.4922C23.1172 24.6328 23.2865 23.9167 23.3906 23.3438C23.4948 22.6667 23.5599 22.1198 23.5859 21.7031C23.5859 21.1823 23.5859 20.5964 23.5859 19.9453C23.5859 19.2682 23.5859 18.6172 23.5859 17.9922C23.5859 17.3672 23.5729 16.8203 23.5469 16.3516C23.5208 15.8568 23.4688 15.5443 23.3906 15.4141L23 15.0234C22.8438 14.8932 22.6094 14.7109 22.2969 14.4766C22.0104 14.2161 21.6198 13.9036 21.125 13.5391ZM23.8984 7.52344C24.4453 7.23698 24.9922 7.15885 25.5391 7.28906C26.112 7.41927 26.5547 7.66667 26.8672 8.03125C27.1797 8.39583 27.2839 8.82552 27.1797 9.32031C27.1016 9.8151 26.6849 10.2969 25.9297 10.7656C25.1745 11.2083 24.5104 11.3646 23.9375 11.2344C23.3646 11.1042 22.9609 10.8307 22.7266 10.4141C22.4922 9.9974 22.4531 9.51562 22.6094 8.96875C22.7656 8.39583 23.1953 7.91406 23.8984 7.52344ZM31.9062 26.7031C32.0885 25.8438 32.2188 25.0885 32.2969 24.4375C32.401 23.7604 32.4792 23.2005 32.5312 22.7578C32.5833 22.237 32.6094 21.7943 32.6094 21.4297C32.5833 20.987 32.5573 20.4661 32.5312 19.8672C32.5312 19.2422 32.5052 18.6302 32.4531 18.0312C32.4271 17.4062 32.388 16.8594 32.3359 16.3906C32.2839 15.8958 32.2188 15.5443 32.1406 15.3359C32.0365 15.1276 31.8932 14.9062 31.7109 14.6719C31.3464 14.2292 30.8125 13.7995 30.1094 13.3828C30.7083 13.2526 31.2161 13.1484 31.6328 13.0703C32.0755 12.9661 32.4401 12.875 32.7266 12.7969C33.0391 12.6927 33.3125 12.6016 33.5469 12.5234C33.7552 12.4453 34.0026 12.3672 34.2891 12.2891C34.5234 12.237 34.8099 12.1719 35.1484 12.0938C35.487 12.0156 35.8776 11.9245 36.3203 11.8203L36.2031 15.375C37.0365 14.3854 37.8828 13.6432 38.7422 13.1484C39.6016 12.6536 40.4089 12.3021 41.1641 12.0938C42.0234 11.8333 42.8698 11.7031 43.7031 11.7031C44.7448 11.7552 45.7083 11.9245 46.5938 12.2109C47.5052 12.4974 48.2865 12.8359 48.9375 13.2266C49.6146 13.5911 50.1615 13.9818 50.5781 14.3984C50.9948 14.8151 51.2422 15.1797 51.3203 15.4922C51.6328 16.5078 51.7109 17.4453 51.5547 18.3047C51.3984 19.138 51.1901 19.9583 50.9297 20.7656C50.6953 21.5469 50.487 22.3281 50.3047 23.1094C50.1484 23.8906 50.2135 24.737 50.5 25.6484C50.6042 25.8828 50.7083 26.1172 50.8125 26.3516C50.9167 26.5599 51.0469 26.7682 51.2031 26.9766C51.3594 27.1849 51.5417 27.3542 51.75 27.4844C51.4635 27.4583 51.1771 27.4453 50.8906 27.4453C50.6042 27.4193 50.3438 27.3932 50.1094 27.3672C49.8229 27.3411 49.5625 27.3151 49.3281 27.2891C49.0677 27.263 48.7161 27.25 48.2734 27.25C47.5182 27.25 46.3464 27.2891 44.7578 27.3672C44.9922 26.8203 45.1745 26.3646 45.3047 26C45.4609 25.6094 45.5911 25.2969 45.6953 25.0625C45.7995 24.776 45.8776 24.5547 45.9297 24.3984C46.2422 23.6432 46.4245 22.7839 46.4766 21.8203C46.5547 20.8568 46.4896 19.8802 46.2812 18.8906C46.2031 18.5521 46.0729 18.1484 45.8906 17.6797C45.7083 17.2109 45.4609 16.7552 45.1484 16.3125C44.862 15.8698 44.5104 15.4922 44.0938 15.1797C43.7031 14.8672 43.2474 14.6849 42.7266 14.6328C42.2057 14.5807 41.6198 14.7109 40.9688 15.0234C40.3438 15.3359 39.6667 15.9089 38.9375 16.7422C38.3906 17.4453 37.9609 18.3047 37.6484 19.3203C37.362 20.1797 37.1667 21.2604 37.0625 22.5625C36.9583 23.8385 37.1146 25.3359 37.5312 27.0547C37.1667 27.0026 36.8281 26.9766 36.5156 26.9766C36.2031 26.9505 35.9427 26.9245 35.7344 26.8984C35.474 26.8724 35.2396 26.8464 35.0312 26.8203C34.7969 26.8203 34.5365 26.8073 34.25 26.7812C33.9896 26.7812 33.6641 26.7812 33.2734 26.7812C32.8828 26.7552 32.4271 26.7292 31.9062 26.7031ZM73.3125 1.07812C73.8073 1.10417 74.3411 1.11719 74.9141 1.11719C75.4089 1.11719 75.9688 1.13021 76.5938 1.15625C77.2448 1.15625 77.9219 1.13021 78.625 1.07812C78 1.36458 77.4531 1.78125 76.9844 2.32812C76.5156 2.875 76.138 3.42188 75.8516 3.96875C75.487 4.61979 75.1875 5.29688 74.9531 6C74.8229 6.41667 74.7188 7.15885 74.6406 8.22656C74.5625 9.26823 74.4974 10.4922 74.4453 11.8984C74.4193 13.3047 74.4062 14.7891 74.4062 16.3516C74.4062 17.9141 74.4193 19.4115 74.4453 20.8438C74.4714 22.25 74.5104 23.5 74.5625 24.5938C74.6146 25.6875 74.6797 26.4557 74.7578 26.8984C74.862 27.4193 74.9922 27.9141 75.1484 28.3828C75.2786 28.7995 75.4479 29.2292 75.6562 29.6719C75.8646 30.0885 76.125 30.4271 76.4375 30.6875L72.4531 32.4844C72.2448 32.1979 72.0755 31.8984 71.9453 31.5859C71.8151 31.2995 71.7109 31.0391 71.6328 30.8047C71.5286 30.5182 71.4635 30.2578 71.4375 30.0234C71.3854 29.7109 71.3333 29.3724 71.2812 29.0078C71.2292 28.6172 71.1641 28.2526 71.0859 27.9141C71.0339 27.5495 70.9948 27.25 70.9688 27.0156C70.9427 26.7812 70.9427 26.638 70.9688 26.5859C70.9948 26.5339 70.8385 26.7682 70.5 27.2891C70.1615 27.7839 69.6536 28.3698 68.9766 29.0469C68.3255 29.6979 67.5182 30.3359 66.5547 30.9609C65.5911 31.5599 64.5104 31.9375 63.3125 32.0938C62.0885 32.25 60.9557 32.0156 59.9141 31.3906C58.8984 30.7656 58.026 29.8932 57.2969 28.7734C56.5677 27.6276 56.0078 26.3125 55.6172 24.8281C55.2526 23.3177 55.1094 21.7812 55.1875 20.2188C55.2396 19.1771 55.474 18.2526 55.8906 17.4453C56.3073 16.612 56.8281 15.8958 57.4531 15.2969C58.1042 14.6719 58.8073 14.151 59.5625 13.7344C60.3438 13.2917 61.099 12.9271 61.8281 12.6406C62.5833 12.3542 63.2865 12.1458 63.9375 12.0156C64.5885 11.8854 65.1094 11.7943 65.5 11.7422C65.9688 11.7161 66.5026 11.7943 67.1016 11.9766C67.6224 12.1328 68.2214 12.3932 68.8984 12.7578C69.6016 13.1224 70.3828 13.6693 71.2422 14.3984C71.0859 11.7943 70.9427 9.71094 70.8125 8.14844C70.6823 6.5599 70.5521 5.34896 70.4219 4.51562C70.2917 3.52604 70.1745 2.84896 70.0703 2.48438C69.9401 2.22396 69.7708 1.96354 69.5625 1.70312C69.3802 1.49479 69.1458 1.28646 68.8594 1.07812C68.599 0.84375 68.2865 0.661458 67.9219 0.53125C68.599 0.661458 69.25 0.752604 69.875 0.804688C70.5 0.856771 71.0729 0.908854 71.5938 0.960938C72.1927 1.01302 72.7656 1.05208 73.3125 1.07812ZM63.5078 15.6484C63.013 15.8307 62.6094 16.1432 62.2969 16.5859C62.0104 17.0286 61.776 17.5625 61.5938 18.1875C61.4115 18.7865 61.2812 19.4375 61.2031 20.1406C61.151 20.8177 61.112 21.4818 61.0859 22.1328C61.0859 22.7578 61.0859 23.3307 61.0859 23.8516C61.0859 24.3724 61.0859 24.763 61.0859 25.0234C61.0859 25.1797 61.112 25.4661 61.1641 25.8828C61.2422 26.2734 61.3984 26.6901 61.6328 27.1328C61.8672 27.5495 62.1927 27.9271 62.6094 28.2656C63.0521 28.6042 63.638 28.7734 64.3672 28.7734C64.9661 28.7214 65.6042 28.513 66.2812 28.1484C66.8802 27.8359 67.5573 27.3411 68.3125 26.6641C69.0938 25.9609 69.9271 24.9583 70.8125 23.6562C70.7604 22.8229 70.7214 22.1328 70.6953 21.5859C70.6953 21.0391 70.6823 20.5964 70.6562 20.2578C70.6302 19.8672 70.6172 19.5547 70.6172 19.3203V18.7344C70.6172 18.5781 70.6172 18.4089 70.6172 18.2266C70.6172 18.0443 70.6302 17.875 70.6562 17.7188C69.9271 17.1979 69.276 16.7552 68.7031 16.3906C68.1562 16 67.6094 15.7135 67.0625 15.5312C66.5417 15.3229 65.9948 15.2318 65.4219 15.2578C64.875 15.2578 64.237 15.388 63.5078 15.6484ZM77.0234 2.99219C77.8568 3.01823 78.5859 3.03125 79.2109 3.03125C79.8359 3.00521 80.3438 2.99219 80.7344 2.99219H81.8672C82.1536 2.96615 82.5052 2.95312 82.9219 2.95312C83.2865 2.95312 83.7292 2.95312 84.25 2.95312C84.7708 2.95312 85.3698 2.96615 86.0469 2.99219C86.2552 3.72135 86.4896 4.4375 86.75 5.14062C87.0365 5.81771 87.2839 6.42969 87.4922 6.97656C87.7526 7.6276 88.013 8.23958 88.2734 8.8125C88.5339 9.38542 88.8464 10.0755 89.2109 10.8828C89.5234 11.5599 89.901 12.3932 90.3438 13.3828C90.7865 14.3464 91.3073 15.4531 91.9062 16.7031C92.1927 15.8958 92.4531 15.1536 92.6875 14.4766C92.9479 13.7995 93.1693 13.2135 93.3516 12.7188C93.5599 12.1458 93.7292 11.625 93.8594 11.1562C93.9896 10.6875 94.1328 10.1146 94.2891 9.4375C94.4193 8.86458 94.5625 8.17448 94.7188 7.36719C94.901 6.5599 95.0833 5.6224 95.2656 4.55469C96.0208 4.55469 96.6979 4.55469 97.2969 4.55469C97.8958 4.55469 98.4167 4.54167 98.8594 4.51562C99.3542 4.51562 99.7969 4.5026 100.188 4.47656C100.604 4.47656 101.164 4.45052 101.867 4.39844C102.466 4.34635 103.26 4.30729 104.25 4.28125C105.266 4.22917 106.516 4.16406 108 4.08594C107.453 4.47656 107.01 4.86719 106.672 5.25781C106.359 5.6224 106.112 5.94792 105.93 6.23438C105.721 6.57292 105.591 6.89844 105.539 7.21094C105.487 7.47135 105.435 8.07031 105.383 9.00781C105.357 9.94531 105.318 11.0651 105.266 12.3672C105.24 13.6432 105.214 15.0104 105.188 16.4688C105.188 17.9271 105.201 19.3073 105.227 20.6094C105.253 21.9115 105.292 23.0443 105.344 24.0078C105.422 24.9453 105.526 25.5443 105.656 25.8047C105.839 26.1172 106.086 26.4818 106.398 26.8984C106.685 27.263 107.049 27.6797 107.492 28.1484C107.961 28.6172 108.573 29.138 109.328 29.7109C108.13 29.763 107.128 29.8021 106.32 29.8281C105.539 29.8542 104.888 29.8802 104.367 29.9062C103.768 29.9323 103.286 29.9453 102.922 29.9453C102.531 29.9453 101.997 29.9583 101.32 29.9844C100.721 30.0104 99.9271 30.0495 98.9375 30.1016C97.9479 30.1276 96.6719 30.1797 95.1094 30.2578C95.474 29.8411 95.8125 29.4245 96.125 29.0078C96.4375 28.5911 96.6979 28.2135 96.9062 27.875C97.1667 27.4844 97.388 27.1068 97.5703 26.7422C97.7526 26.2474 97.8958 25.349 98 24.0469C98.1042 22.9271 98.1823 21.3255 98.2344 19.2422C98.2865 17.1328 98.2865 14.3073 98.2344 10.7656C97.7396 11.5729 97.2969 12.3802 96.9062 13.1875C96.5417 13.9688 96.2161 14.6849 95.9297 15.3359C95.6172 16.0911 95.3307 16.8203 95.0703 17.5234C94.8099 18.2526 94.5365 19.0599 94.25 19.9453C93.9896 20.7005 93.6771 21.599 93.3125 22.6406C92.974 23.6823 92.5833 24.8281 92.1406 26.0781L90.6562 26.1562C90.4479 25.1146 90.2396 24.1771 90.0312 23.3438C89.8229 22.4844 89.6146 21.7552 89.4062 21.1562C89.1719 20.4531 88.9375 19.8281 88.7031 19.2812C88.4427 18.7344 88.1562 18.1224 87.8438 17.4453C87.5573 16.8724 87.2057 16.1953 86.7891 15.4141C86.3984 14.6328 85.9427 13.7604 85.4219 12.7969C85.1615 15.4531 85.0052 17.6146 84.9531 19.2812C84.901 20.9219 84.901 22.1979 84.9531 23.1094C85.0052 24.2031 85.0833 24.9974 85.1875 25.4922C85.3438 25.9349 85.5911 26.4297 85.9297 26.9766C86.2161 27.4453 86.6068 28.0052 87.1016 28.6562C87.6224 29.2812 88.2865 29.9844 89.0938 30.7656C88.5208 30.7656 87.9219 30.7656 87.2969 30.7656C86.6719 30.7656 86.099 30.7786 85.5781 30.8047C84.9531 30.8307 84.3411 30.8438 83.7422 30.8438C83.1172 30.8698 82.388 30.9089 81.5547 30.9609C80.8255 31.013 79.9531 31.0651 78.9375 31.1172C77.9219 31.1693 76.75 31.2604 75.4219 31.3906C75.9948 31.026 76.4635 30.6745 76.8281 30.3359C77.1927 29.9714 77.4792 29.6458 77.6875 29.3594C77.9479 29.0208 78.1432 28.6823 78.2734 28.3438C78.3516 28.1354 78.4167 27.6797 78.4688 26.9766C78.5469 26.2734 78.612 25.4141 78.6641 24.3984C78.7422 23.3828 78.7943 22.25 78.8203 21C78.8724 19.75 78.9115 18.487 78.9375 17.2109C78.9896 15.9089 79.0286 14.6458 79.0547 13.4219C79.0807 12.1719 79.0938 11.0521 79.0938 10.0625C79.1198 9.04688 79.1328 8.20052 79.1328 7.52344C79.1328 6.84635 79.1328 6.41667 79.1328 6.23438C79.0547 5.84375 78.9375 5.45312 78.7812 5.0625C78.651 4.72396 78.4427 4.3724 78.1562 4.00781C77.8698 3.64323 77.4922 3.30469 77.0234 2.99219ZM119.797 13.5C120.474 13.5 121.177 13.6302 121.906 13.8906C122.635 14.125 123.339 14.4375 124.016 14.8281C124.693 15.1927 125.305 15.5964 125.852 16.0391C126.424 16.4557 126.893 16.8594 127.258 17.25C127.909 17.9531 128.352 18.9036 128.586 20.1016C128.846 21.2734 128.898 22.4844 128.742 23.7344C128.586 24.9583 128.221 26.1172 127.648 27.2109C127.076 28.3047 126.281 29.112 125.266 29.6328C124.536 29.9974 123.82 30.2839 123.117 30.4922C122.414 30.7005 121.737 30.8568 121.086 30.9609C120.435 31.0651 119.823 31.1172 119.25 31.1172C118.677 31.1172 118.182 31.1042 117.766 31.0781C116.984 31.026 116.164 30.7526 115.305 30.2578C114.471 29.763 113.677 29.151 112.922 28.4219C112.193 27.6927 111.568 26.8984 111.047 26.0391C110.526 25.1536 110.214 24.3203 110.109 23.5391C109.953 22.4714 109.927 21.3516 110.031 20.1797C110.135 19.0078 110.513 17.9271 111.164 16.9375C111.841 15.9479 112.857 15.1276 114.211 14.4766C115.591 13.8255 117.453 13.5 119.797 13.5ZM118.508 28.6562C118.794 28.7083 119.185 28.6432 119.68 28.4609C120.174 28.2526 120.656 27.9271 121.125 27.4844C121.62 27.0417 122.049 26.4818 122.414 25.8047C122.805 25.1016 123.039 24.2552 123.117 23.2656C123.195 22.3021 123.195 21.4167 123.117 20.6094C123.065 19.8021 122.948 19.099 122.766 18.5C122.583 17.875 122.375 17.3672 122.141 16.9766C121.906 16.5859 121.659 16.3125 121.398 16.1562C120.956 15.9219 120.422 15.7396 119.797 15.6094C119.172 15.4531 118.638 15.4792 118.195 15.6875C117.987 15.7917 117.727 16.013 117.414 16.3516C117.102 16.6901 116.789 17.1198 116.477 17.6406C116.164 18.1354 115.878 18.7083 115.617 19.3594C115.383 20.0104 115.214 20.6875 115.109 21.3906C115.005 22.0938 114.979 22.849 115.031 23.6562C115.109 24.4635 115.279 25.2318 115.539 25.9609C115.799 26.6641 116.164 27.276 116.633 27.7969C117.128 28.2917 117.753 28.5781 118.508 28.6562ZM128.039 9.47656C128.482 9.55469 128.938 9.61979 129.406 9.67188C129.849 9.69792 130.253 9.72396 130.617 9.75C131.034 9.77604 131.438 9.78906 131.828 9.78906C132.219 9.78906 132.661 9.77604 133.156 9.75C133.573 9.72396 134.068 9.6849 134.641 9.63281C135.24 9.58073 135.891 9.5026 136.594 9.39844C136.177 9.63281 135.852 9.88021 135.617 10.1406C135.383 10.401 135.201 10.6354 135.07 10.8438C134.914 11.1042 134.81 11.3385 134.758 11.5469C134.706 11.7552 134.719 12.1849 134.797 12.8359C134.875 13.487 134.979 14.2422 135.109 15.1016C135.266 15.9609 135.435 16.8594 135.617 17.7969C135.799 18.7344 135.982 19.5938 136.164 20.375C136.372 21.1562 136.555 21.8073 136.711 22.3281C136.893 22.849 137.036 23.0964 137.141 23.0703C137.245 23.0703 137.401 22.8099 137.609 22.2891C137.844 21.7682 138.104 21.1302 138.391 20.375C138.677 19.5938 138.977 18.7474 139.289 17.8359C139.602 16.8984 139.875 16.026 140.109 15.2188C140.344 14.4115 140.526 13.7344 140.656 13.1875C140.812 12.6146 140.878 12.276 140.852 12.1719C140.773 12.0677 140.682 11.9245 140.578 11.7422C140.396 11.4557 139.992 10.9609 139.367 10.2578C140.122 10.3099 140.773 10.362 141.32 10.4141C141.867 10.4401 142.31 10.4792 142.648 10.5312C143.039 10.5833 143.352 10.6224 143.586 10.6484C143.82 10.6745 144.159 10.6745 144.602 10.6484C144.966 10.6484 145.448 10.6354 146.047 10.6094C146.672 10.5573 147.44 10.4792 148.352 10.375C147.674 10.7656 147.115 11.1172 146.672 11.4297C146.255 11.7161 145.93 11.9635 145.695 12.1719C145.409 12.4323 145.201 12.6536 145.07 12.8359C144.888 13.1745 144.562 13.9818 144.094 15.2578C143.885 15.8047 143.625 16.4818 143.312 17.2891C143.026 18.0964 142.674 19.0729 142.258 20.2188C141.867 21.3385 141.398 22.6536 140.852 24.1641C140.305 25.6745 139.693 27.4062 139.016 29.3594L135.227 29.75C134.732 28.1094 134.328 26.7422 134.016 25.6484C133.729 24.5286 133.495 23.6302 133.312 22.9531C133.104 22.1719 132.948 21.5599 132.844 21.1172C132.714 20.6224 132.557 19.9062 132.375 18.9688C132.193 18.0052 132.01 17.0286 131.828 16.0391C131.646 15.0495 131.464 14.1641 131.281 13.3828C131.099 12.5755 130.956 12.0807 130.852 11.8984C130.747 11.7682 130.565 11.5859 130.305 11.3516C130.096 11.1432 129.81 10.8958 129.445 10.6094C129.081 10.2969 128.612 9.91927 128.039 9.47656ZM146.359 13.5391L153.547 13.6172C153.13 15.2057 152.818 16.5599 152.609 17.6797C152.427 18.7995 152.31 19.737 152.258 20.4922C152.154 21.3516 152.128 22.0807 152.18 22.6797C152.258 23.2266 152.388 23.8125 152.57 24.4375C152.727 24.9583 152.961 25.5573 153.273 26.2344C153.586 26.9115 154.003 27.5885 154.523 28.2656C154.211 28.1615 153.872 28.0833 153.508 28.0312C153.143 27.9792 152.805 27.9401 152.492 27.9141C152.128 27.888 151.763 27.888 151.398 27.9141C151.034 27.9401 150.63 27.9792 150.188 28.0312C149.823 28.0833 149.38 28.1484 148.859 28.2266C148.339 28.3047 147.792 28.4089 147.219 28.5391C147.609 27.3672 147.909 26.3516 148.117 25.4922C148.352 24.6328 148.521 23.9167 148.625 23.3438C148.729 22.6667 148.794 22.1198 148.82 21.7031C148.82 21.1823 148.82 20.5964 148.82 19.9453C148.82 19.2682 148.82 18.6172 148.82 17.9922C148.82 17.3672 148.807 16.8203 148.781 16.3516C148.755 15.8568 148.703 15.5443 148.625 15.4141L148.234 15.0234C148.078 14.8932 147.844 14.7109 147.531 14.4766C147.245 14.2161 146.854 13.9036 146.359 13.5391ZM149.133 7.52344C149.68 7.23698 150.227 7.15885 150.773 7.28906C151.346 7.41927 151.789 7.66667 152.102 8.03125C152.414 8.39583 152.518 8.82552 152.414 9.32031C152.336 9.8151 151.919 10.2969 151.164 10.7656C150.409 11.2083 149.745 11.3646 149.172 11.2344C148.599 11.1042 148.195 10.8307 147.961 10.4141C147.727 9.9974 147.688 9.51562 147.844 8.96875C148 8.39583 148.43 7.91406 149.133 7.52344ZM166.086 24.7109C166.815 24.7109 167.492 24.6328 168.117 24.4766C168.638 24.3464 169.133 24.138 169.602 23.8516C170.096 23.5391 170.422 23.0833 170.578 22.4844C171.099 22.5885 171.542 22.6797 171.906 22.7578C172.271 22.8099 172.583 22.862 172.844 22.9141C173.13 22.9922 173.378 23.0443 173.586 23.0703C173.794 23.1224 174.042 23.1745 174.328 23.2266C174.589 23.2786 174.901 23.3438 175.266 23.4219C175.656 23.474 176.112 23.5521 176.633 23.6562C176.242 23.6042 175.839 23.6432 175.422 23.7734C175.031 23.9036 174.654 24.0469 174.289 24.2031C173.872 24.3854 173.482 24.6068 173.117 24.8672C172.883 25.0234 172.609 25.2578 172.297 25.5703C172.01 25.8828 171.594 26.1823 171.047 26.4688C170.5 26.7552 169.771 27.0026 168.859 27.2109C167.974 27.3932 166.828 27.4583 165.422 27.4062C163.729 27.3542 162.31 27.0547 161.164 26.5078C160.018 25.9349 159.094 25.2448 158.391 24.4375C157.688 23.6042 157.18 22.7057 156.867 21.7422C156.555 20.7786 156.385 19.8802 156.359 19.0469C156.333 18.2135 156.581 17.3411 157.102 16.4297C157.622 15.5182 158.352 14.6849 159.289 13.9297C160.253 13.1745 161.411 12.5625 162.766 12.0938C164.12 11.599 165.604 11.3516 167.219 11.3516C168.156 11.3516 169.016 11.4688 169.797 11.7031C170.604 11.9115 171.333 12.1979 171.984 12.5625C172.661 12.9271 173.247 13.3438 173.742 13.8125C174.237 14.2552 174.654 14.7109 174.992 15.1797C175.331 15.6745 175.617 16.1953 175.852 16.7422C176.06 17.2109 176.229 17.7448 176.359 18.3438C176.49 18.9427 176.529 19.5547 176.477 20.1797C174.497 20.2318 172.896 20.2708 171.672 20.2969C170.474 20.3229 169.536 20.3359 168.859 20.3359H167.102H165.773C165.305 20.3359 164.693 20.349 163.938 20.375C163.182 20.401 162.258 20.4401 161.164 20.4922C161.294 21.5339 161.62 22.3411 162.141 22.9141C162.688 23.4609 163.26 23.8776 163.859 24.1641C164.536 24.4766 165.279 24.6589 166.086 24.7109ZM162.57 17.6797C163.404 17.7318 164.094 17.7708 164.641 17.7969C165.214 17.8229 165.682 17.849 166.047 17.875C166.438 17.901 166.75 17.9141 166.984 17.9141H167.961C168.612 17.9141 169.823 17.875 171.594 17.7969C171.516 16.651 171.268 15.7786 170.852 15.1797C170.461 14.5807 170.044 14.138 169.602 13.8516C169.081 13.5391 168.508 13.3568 167.883 13.3047C166.19 13.3307 164.927 13.6823 164.094 14.3594C163.286 15.0365 162.779 16.1432 162.57 17.6797ZM195.266 8.69531C195.031 9.26823 194.823 9.78906 194.641 10.2578C194.484 10.7266 194.341 11.1432 194.211 11.5078C194.081 11.9245 193.964 12.2891 193.859 12.6016C193.755 12.9661 193.638 13.3828 193.508 13.8516C193.378 14.2682 193.208 14.7891 193 15.4141C192.818 16.013 192.596 16.7292 192.336 17.5625C192.128 16.3125 191.75 15.3229 191.203 14.5938C190.656 13.8385 190.096 13.2526 189.523 12.8359C188.846 12.3672 188.117 12.0286 187.336 11.8203C185.93 11.5859 184.914 11.612 184.289 11.8984C183.664 12.1849 183.247 12.5495 183.039 12.9922C182.935 13.1745 182.818 13.4089 182.688 13.6953C182.583 13.9557 182.492 14.2292 182.414 14.5156C182.362 14.8021 182.349 15.0885 182.375 15.375C182.401 15.6615 182.518 15.8958 182.727 16.0781C182.857 16.2083 183.195 16.3906 183.742 16.625C184.289 16.8333 184.94 17.0807 185.695 17.3672C186.477 17.6276 187.297 17.9141 188.156 18.2266C189.042 18.5391 189.875 18.8516 190.656 19.1641C191.438 19.4766 192.115 19.7891 192.688 20.1016C193.26 20.4141 193.638 20.7005 193.82 20.9609C193.977 21.2214 194.146 21.5729 194.328 22.0156C194.536 22.4323 194.68 22.901 194.758 23.4219C194.862 23.9167 194.888 24.4375 194.836 24.9844C194.81 25.5052 194.667 26.026 194.406 26.5469C194.146 27.0677 193.729 27.5495 193.156 27.9922C192.609 28.4349 191.867 28.7995 190.93 29.0859C189.836 29.4245 188.781 29.5156 187.766 29.3594C186.75 29.2031 185.812 28.9688 184.953 28.6562C184.12 28.3438 183.391 28.0443 182.766 27.7578C182.141 27.4453 181.698 27.3151 181.438 27.3672C181.151 27.4193 180.826 27.5625 180.461 27.7969C180.096 28.0312 179.745 28.2786 179.406 28.5391C179.094 28.7734 178.82 28.9948 178.586 29.2031C178.352 29.3854 178.234 29.4505 178.234 29.3984C178.234 29.3464 178.273 29.1901 178.352 28.9297C178.456 28.6693 178.56 28.3568 178.664 27.9922C178.794 27.6016 178.911 27.1849 179.016 26.7422C179.146 26.2734 179.237 25.8307 179.289 25.4141C179.341 25.0755 179.406 24.6589 179.484 24.1641C179.536 23.7214 179.602 23.1875 179.68 22.5625C179.784 21.9115 179.901 21.1302 180.031 20.2188C180.161 20.8958 180.344 21.4818 180.578 21.9766C180.839 22.4714 181.086 22.901 181.32 23.2656C181.607 23.6823 181.88 24.0339 182.141 24.3203C182.531 24.6849 182.987 25.0234 183.508 25.3359C184.055 25.6484 184.602 25.9219 185.148 26.1562C185.695 26.3646 186.216 26.4948 186.711 26.5469C187.206 26.599 187.622 26.5469 187.961 26.3906C188.299 26.2344 188.586 25.9479 188.82 25.5312C189.081 25.1146 189.263 24.6589 189.367 24.1641C189.471 23.6693 189.51 23.2005 189.484 22.7578C189.458 22.2891 189.341 21.9115 189.133 21.625C188.977 21.4427 188.612 21.2083 188.039 20.9219C187.492 20.6354 186.828 20.3229 186.047 19.9844C185.292 19.6458 184.484 19.2943 183.625 18.9297C182.792 18.5651 181.997 18.2005 181.242 17.8359C180.513 17.4453 179.901 17.0807 179.406 16.7422C178.938 16.3776 178.677 16.0521 178.625 15.7656C178.573 15.349 178.534 14.8932 178.508 14.3984C178.482 13.8776 178.508 13.3698 178.586 12.875C178.69 12.3542 178.872 11.8594 179.133 11.3906C179.419 10.9219 179.836 10.5312 180.383 10.2188C180.747 10.0104 181.229 9.85417 181.828 9.75C182.427 9.64583 183.091 9.59375 183.82 9.59375C184.549 9.56771 185.305 9.59375 186.086 9.67188C186.867 9.72396 187.609 9.80208 188.312 9.90625C189.042 9.98438 189.693 10.0885 190.266 10.2188C190.865 10.349 191.32 10.4661 191.633 10.5703C191.997 10.7005 192.388 10.7135 192.805 10.6094C193.169 10.5312 193.56 10.362 193.977 10.1016C194.393 9.84115 194.823 9.3724 195.266 8.69531Z" fill="url(#paint0_linear_1_3)"/>
</g>
<defs>
<linearGradient id="paint0_linear_1_3" x1="3" y1="21" x2="185.789" y2="13.1068" gradientUnits="userSpaceOnUse">
<stop offset="0.00680638" stop-color="#F58A0C"/>
<stop offset="0.492567" stop-color="#EBFF07"/>
<stop offset="1" stop-color="#06FF69"/>
</linearGradient>
</defs>
</svg>
